<svg width="42" height="42" viewBox="0 0 42 42" fill="none" xmlns="http://www.w3.org/2000/svg">
<g clip-path="url(#clip0_54_187)">
<g filter="url(#filter0_d_54_187)">
<path fill-rule="evenodd" clip-rule="evenodd" d="M27.7525 29.0546L34.3181 35.6203C34.5151 35.8172 34.7822 35.9278 35.0607 35.9277C35.3391 35.9277 35.6062 35.817 35.8031 35.62C36 35.4231 36.1106 35.156 36.1105 34.8775C36.1105 34.599 35.9998 34.332 35.8028 34.1351L29.222 27.5542C28.7746 28.0944 28.2834 28.5963 27.7525 29.0546Z" fill="#F2994A"/>
<path d="M7.12825 16.1301C7.55045 14.5038 8.29039 12.9772 9.30541 11.6383C10.3204 10.2994 11.5904 9.1746 13.0422 8.32886C14.494 7.48311 16.0989 6.93311 17.7642 6.71056C19.4296 6.48801 21.1226 6.59732 22.7455 7.03219C24.3684 7.46706 25.8892 8.21888 27.2202 9.24431C28.5511 10.2697 29.666 11.5485 30.5004 13.0068C31.3348 14.4652 31.8722 16.0742 32.0818 17.7413C32.2914 19.4084 32.1689 21.1004 31.7213 22.7199C30.8266 25.9577 28.6885 28.7108 25.7728 30.379C22.8571 32.0472 19.4002 32.4955 16.1555 31.626C12.9107 30.7566 10.1411 28.64 8.45023 25.7374C6.75931 22.8348 6.28413 19.3815 7.12825 16.1301Z" fill="#56CCF2" stroke="#2F80ED" stroke-linecap="round" stroke-linejoin="round"/>
<path d="M10.6455 19.4235C10.6455 19.702 10.7561 19.9691 10.953 20.166C11.15 20.3629 11.417 20.4735 11.6955 20.4735C11.974 20.4735 12.2411 20.3629 12.438 20.166C12.6349 19.9691 12.7455 19.702 12.7455 19.4235H10.6455ZM19.4225 12.746C19.7009 12.746 19.968 12.6354 20.1649 12.4385C20.3618 12.2416 20.4725 11.9745 20.4725 11.696C20.4725 11.4176 20.3618 11.1505 20.1649 10.9536C19.968 10.7567 19.7009 10.646 19.4225 10.646V12.746ZM12.7455 19.4235C12.7456 18.2514 13.0542 17.0999 13.6403 16.0848C14.2264 15.0697 15.0694 14.2267 16.0845 13.6406L15.0345 11.822C13.7002 12.5924 12.5922 13.7003 11.8218 15.0346C11.0514 16.3688 10.6457 17.8823 10.6455 19.423L12.7455 19.4235ZM19.4219 10.6455C17.8815 10.6453 16.3683 11.0514 15.0345 11.822L16.0845 13.6406C17.0992 13.0543 18.2505 12.7457 19.4225 12.746L19.4219 10.6455Z" fill="#F2F2F2"/>
</g>
</g>
<defs>
<filter id="filter0_d_54_187" x="2.21973" y="6.09839" width="37.8906" height="37.8293" filterUnits="userSpaceOnUse" color-interpolation-filters="sRGB">
<feFlood flood-opacity="0" result="BackgroundImageFix"/>
<feColorMatrix in="SourceAlpha" type="matrix" values="0 0 0 0 0 0 0 0 0 0 0 0 0 0 0 0 0 0 127 0" result="hardAlpha"/>
<feOffset dy="4"/>
<feGaussianBlur stdDeviation="2"/>
<feComposite in2="hardAlpha" operator="out"/>
<feColorMatrix type="matrix" values="0 0 0 0 0.760784 0 0 0 0 0.760784 0 0 0 0 0.760784 0 0 0 0.32 0"/>
<feBlend mode="normal" in2="BackgroundImageFix" result="effect1_dropShadow_54_187"/>
<feBlend mode="normal" in="SourceGraphic" in2="effect1_dropShadow_54_187" result="shape"/>
</filter>
<clipPath id="clip0_54_187">
<rect width="42" height="42" fill="white"/>
</clipPath>
</defs>
</svg>
