<svg width="42" height="42" viewBox="0 0 42 42" fill="none" xmlns="http://www.w3.org/2000/svg">
<g clip-path="url(#clip0_54_192)">
<g filter="url(#filter0_d_54_192)">
<path d="M20.16 11.9396C20.4385 11.9396 20.7055 11.829 20.9025 11.6321C21.0994 11.4351 21.21 11.1681 21.21 10.8896C21.21 10.6111 21.0994 10.344 20.9025 10.1471C20.7055 9.95022 20.4385 9.8396 20.16 9.8396V11.9396ZM32.55 22.2296C32.55 21.9511 32.4394 21.6841 32.2425 21.4871C32.0455 21.2902 31.7785 21.1796 31.5 21.1796C31.2215 21.1796 30.9544 21.2902 30.7575 21.4871C30.5606 21.6841 30.45 21.9511 30.45 22.2296H32.55ZM5.25 11.9396V35.0396H7.35V11.9396H5.25ZM7.35 37.1396H30.45V35.0396H7.35V37.1396ZM20.16 9.8396H7.35V11.9396H20.16V9.8396ZM32.55 35.0396V22.2296H30.45V35.0396H32.55ZM30.45 37.1396C31.007 37.1396 31.5411 36.9184 31.9349 36.5245C32.3287 36.1307 32.55 35.5966 32.55 35.0396H30.45V37.1396ZM5.25 35.0396C5.25 35.5966 5.47125 36.1307 5.86508 36.5245C6.2589 36.9184 6.79305 37.1396 7.35 37.1396V35.0396H5.25ZM7.35 11.9396V9.8396C6.79305 9.8396 6.2589 10.0608 5.86508 10.4547C5.47125 10.8485 5.25 11.3826 5.25 11.9396H7.35Z" fill="#2F80ED"/>
<path fill-rule="evenodd" clip-rule="evenodd" d="M35.7075 11.496C36.117 11.0865 36.117 10.4229 35.7075 10.0134L32.7376 7.04344C32.6399 6.94576 32.524 6.86828 32.3964 6.81542C32.2688 6.76256 32.132 6.73535 31.9939 6.73535C31.8558 6.73535 31.719 6.76256 31.5914 6.81542C31.4638 6.86828 31.3479 6.94576 31.2502 7.04344L16.1171 22.1771C14.8042 23.49 13.9633 25.2008 13.7257 27.0423L13.564 28.2939L13.4984 28.8052C13.4906 28.8656 13.4967 28.9269 13.5164 28.9845C13.536 29.0421 13.5685 29.0944 13.6115 29.1374C13.6545 29.1805 13.7068 29.2131 13.7644 29.2328C13.8219 29.2525 13.8833 29.2587 13.9436 29.2509L14.4555 29.1848L15.7071 29.0236C17.5483 28.786 19.259 27.945 20.5717 26.6322L35.7075 11.496Z" fill="#9B51E0"/>
<path d="M27.377 10.9221L31.829 15.3741" stroke="#F2C94C" stroke-linejoin="round"/>
</g>
</g>
<defs>
<filter id="filter0_d_54_192" x="1.25" y="6.73535" width="38.7646" height="38.4043" filterUnits="userSpaceOnUse" color-interpolation-filters="sRGB">
<feFlood flood-opacity="0" result="BackgroundImageFix"/>
<feColorMatrix in="SourceAlpha" type="matrix" values="0 0 0 0 0 0 0 0 0 0 0 0 0 0 0 0 0 0 127 0" result="hardAlpha"/>
<feOffset dy="4"/>
<feGaussianBlur stdDeviation="2"/>
<feComposite in2="hardAlpha" operator="out"/>
<feColorMatrix type="matrix" values="0 0 0 0 0.760784 0 0 0 0 0.760784 0 0 0 0 0.760784 0 0 0 0.32 0"/>
<feBlend mode="normal" in2="BackgroundImageFix" result="effect1_dropShadow_54_192"/>
<feBlend mode="normal" in="SourceGraphic" in2="effect1_dropShadow_54_192" result="shape"/>
</filter>
<clipPath id="clip0_54_192">
<rect width="42" height="42" fill="white"/>
</clipPath>
</defs>
</svg>
