<svg preserveAspectRatio="none" width="100%" height="100%" overflow="visible" style="display: block;" viewBox="0 0 16 13" fill="none" xmlns="http://www.w3.org/2000/svg">
<g id="logos:twitter" clip-path="url(#clip0_0_103)">
<path id="Vector" d="M16 1.58301C15.4009 1.8472 14.7654 2.02059 14.1146 2.09742C14.7924 1.69311 15.3129 1.05288 15.5579 0.290043C14.9136 0.670561 14.2086 0.938671 13.4735 1.08279C12.8747 0.447909 12.0216 0.0511292 11.0774 0.0511292C9.26456 0.0511292 7.79475 1.51385 7.79475 3.31792C7.79475 3.574 7.82381 3.82331 7.87975 4.06247C5.15162 3.92619 2.73287 2.62563 1.11381 0.649129C0.831312 1.13162 0.669438 1.69286 0.669438 2.29148C0.669438 3.42491 1.249 4.42479 2.12975 5.01066C1.60846 4.99444 1.09864 4.85432 0.642875 4.602C0.642708 4.61568 0.642646 4.62939 0.642687 4.64312C0.642687 6.22594 1.77419 7.54634 3.27581 7.84646C2.79243 7.97728 2.28539 7.99643 1.79344 7.90244C2.21112 9.20033 3.42344 10.1448 4.85981 10.1712C3.73638 11.0474 2.32094 11.5697 0.783063 11.5697C0.518063 11.5697 0.256813 11.5542 0 11.524C1.45269 12.451 3.17813 12.9918 5.03188 12.9918C11.0698 12.9918 14.3715 8.01378 14.3715 3.69679C14.3715 3.5551 14.3683 3.41421 14.362 3.27413C15.0046 2.81173 15.5593 2.23908 16 1.58301Z" fill="var(--fill-0, #55ACEE)"/>
</g>
<defs>
<clipPath id="clip0_0_103">
<rect width="16" height="13" fill="white"/>
</clipPath>
</defs>
</svg>
