<svg preserveAspectRatio="none" width="100%" height="100%" overflow="visible" style="display: block;" viewBox="0 0 14.8592 14.8855" fill="none" xmlns="http://www.w3.org/2000/svg">
<path id="Vector" d="M14.0587 10.7467V12.7467C14.0595 12.9324 14.0215 13.1162 13.9471 13.2863C13.8727 13.4564 13.7636 13.6091 13.6268 13.7346C13.49 13.8602 13.3285 13.9557 13.1526 14.0152C12.9767 14.0747 12.7903 14.0968 12.6054 14.0801C10.554 13.8572 8.58341 13.1562 6.85208 12.0334C5.2413 11.0098 3.87564 9.64418 2.85208 8.0334C1.7254 6.2942 1.02424 4.31406 0.805411 2.2534C0.788752 2.06904 0.810661 1.88324 0.869745 1.70781C0.928828 1.53239 1.02379 1.37119 1.14859 1.23448C1.27339 1.09777 1.42528 0.988538 1.59461 0.913746C1.76393 0.838954 1.94697 0.800239 2.13208 0.800065H4.13208C4.45562 0.79688 4.76927 0.91145 5.01459 1.12242C5.2599 1.33339 5.42013 1.62636 5.46541 1.94673C5.54983 2.58678 5.70638 3.21522 5.93208 3.82006C6.02177 4.05868 6.04119 4.31801 5.98802 4.56732C5.93485 4.81663 5.81132 5.04547 5.63208 5.22673L4.78541 6.0734C5.73445 7.74243 7.11638 9.12436 8.78541 10.0734L9.63208 9.22673C9.81334 9.04749 10.0422 8.92396 10.2915 8.87079C10.5408 8.81762 10.8001 8.83704 11.0387 8.92673C11.6436 9.15243 12.272 9.30898 12.9121 9.3934C13.2359 9.43909 13.5317 9.6022 13.7431 9.85173C13.9545 10.1013 14.0669 10.4198 14.0587 10.7467Z" stroke="var(--stroke-0, #22C55E)" stroke-width="1.6" stroke-linecap="round" stroke-linejoin="round"/>
</svg>
