<svg preserveAspectRatio="none" width="100%" height="100%" overflow="visible" style="display: block;" viewBox="0 0 29.1028 29.1191" fill="none" xmlns="http://www.w3.org/2000/svg">
<g id="Group">
<path id="Vector" d="M8.9478 1.12223C10.7143 0.385122 12.6088 0.00377446 14.5229 2.78776e-05C16.437 -0.0037187 18.3331 0.370209 20.1024 1.10039C21.8718 1.83057 23.4797 2.90266 24.8341 4.25525C26.1884 5.60783 27.2626 7.21434 27.9951 8.98273C28.7277 10.7511 29.1041 12.6467 29.1028 14.5608C29.1016 16.4749 28.7228 18.3699 27.988 20.1374C27.2532 21.9048 26.1769 23.51 24.8208 24.8608C23.4647 26.2116 21.8554 27.2817 20.0852 28.0096C16.5219 29.4747 12.523 29.467 8.96547 27.988C5.40793 26.509 2.58211 23.6796 1.1077 20.1201C-0.366697 16.5607 -0.369327 12.5618 1.10039 9.00042C2.57011 5.43904 5.39221 2.60587 8.9478 1.12223Z" fill="var(--fill-0, #2F80ED)"/>
<path id="Vector_2" fill-rule="evenodd" clip-rule="evenodd" d="M8.77193 23.0341C7.20807 19.2587 6.72019 15.124 7.36237 11.0883C8.00455 7.05252 9.75171 3.27343 12.4102 0.169876C13.8067 -0.0343488 15.2252 -0.0348738 16.6212 0.169876C20.0572 4.18019 21.9458 9.28711 21.9457 14.5681C21.9456 19.8491 20.0568 24.9559 16.6207 28.9661C15.2256 29.1701 13.8084 29.1701 12.4133 28.9661C10.8939 27.1937 9.66486 25.1912 8.77193 23.0341ZM10.2267 6.70087C11.2288 4.28031 12.6849 2.07394 14.5165 0.200851C18.2698 4.04079 20.3713 9.19706 20.3716 14.5666C20.3719 19.9362 18.2709 25.0927 14.5181 28.933C11.7046 26.0545 9.79823 22.4132 9.03554 18.461C8.27285 14.5088 8.6874 10.4196 10.2278 6.70087" fill="var(--fill-0, #F2F2F2)"/>
<path id="Vector_3" fill-rule="evenodd" clip-rule="evenodd" d="M0.665929 10.1034C0.839096 9.56713 1.04296 9.04126 1.2765 8.5284H27.7554C27.9889 9.04126 28.1928 9.56713 28.366 10.1034H0.665929ZM1.04918 20.0784C0.838958 19.5641 0.658067 19.0382 0.507379 18.5034H28.524C28.3733 19.0382 28.1924 19.5641 27.9822 20.0784H1.04918Z" fill="var(--fill-0, #F2F2F2)"/>
</g>
</svg>
