<svg preserveAspectRatio="none" width="100%" height="100%" overflow="visible" style="display: block;" viewBox="0 0 37.8 25.2" fill="none" xmlns="http://www.w3.org/2000/svg">
<g id="Group">
<path id="Vector" fill-rule="evenodd" clip-rule="evenodd" d="M6.30001 0C5.74305 0 5.20891 0.221249 4.81508 0.615075C4.42126 1.0089 4.20001 1.54305 4.20001 2.1V21H14.7662C14.9993 21.9056 15.8214 22.575 16.8 22.575H21C21.4657 22.5751 21.9181 22.4205 22.2863 22.1354C22.6545 21.8503 22.9174 21.4509 23.0339 21H33.6V2.1C33.6 1.54305 33.3788 1.0089 32.9849 0.615075C32.5911 0.221249 32.057 0 31.5 0H6.30001Z" fill="var(--fill-0, #56CCF2)"/>
<path id="Vector_2" fill-rule="evenodd" clip-rule="evenodd" d="M14.7662 21H0.0798071C0.0692885 20.9999 0.0588482 21.0018 0.0491027 21.0058C0.0393571 21.0097 0.0305038 21.0156 0.0230654 21.0231C0.0156269 21.0305 0.00975427 21.0393 0.00579394 21.0491C0.00183362 21.0588 -0.000134113 21.0693 7.09552e-06 21.0798C0.000285445 22.1725 0.434466 23.2203 1.20709 23.9929C1.97972 24.7655 3.02755 25.1997 4.12021 25.2H33.6798C34.7725 25.1997 35.8203 24.7655 36.5929 23.9929C37.3655 23.2203 37.7997 22.1725 37.8 21.0798C37.8001 21.0693 37.7982 21.0588 37.7942 21.0491C37.7903 21.0393 37.7844 21.0305 37.7769 21.0231C37.7695 21.0156 37.7607 21.0097 37.7509 21.0058C37.7412 21.0018 37.7307 20.9999 37.7202 21H23.0339C22.9174 21.4509 22.6545 21.8503 22.2863 22.1354C21.9181 22.4205 21.4657 22.5751 21 22.575H16.8C16.3344 22.5751 15.8819 22.4205 15.5137 22.1354C15.1455 21.8503 14.8826 21.4509 14.7662 21Z" fill="var(--fill-0, #9B51E0)"/>
</g>
</svg>
