<svg preserveAspectRatio="none" width="100%" height="100%" overflow="visible" style="display: block;" viewBox="0 0 29.3243 33.7251" fill="none" xmlns="http://www.w3.org/2000/svg">
<g id="Group">
<path id="Vector" fill-rule="evenodd" clip-rule="evenodd" d="M14.6626 32.6754C9.58501 30.2934 5.51865 26.1851 3.18872 21.0834C0.914375 16.1028 0.437718 10.4876 1.84 5.19482L14.6626 1.04995L27.4857 5.19482C28.9054 10.552 28.3993 16.2375 26.0558 21.2597C23.7124 26.2819 19.6802 30.322 14.6626 32.6754Z" fill="var(--fill-0, #2F80ED)"/>
<path id="Vector_2" d="M14.6626 32.6754L14.2169 33.6257C14.3564 33.6912 14.5087 33.7251 14.6629 33.7251C14.817 33.7251 14.9693 33.6912 15.1088 33.6257L14.6626 32.6754ZM1.84 5.19482L1.51712 4.19575C1.34994 4.24978 1.19899 4.3449 1.0781 4.4724C0.957212 4.59989 0.870247 4.75568 0.825174 4.9255L1.84 5.19482ZM14.6626 1.04995L14.9855 0.0508745C14.7756 -0.0169582 14.5496 -0.0169582 14.3397 0.0508745L14.6626 1.04995ZM27.4857 5.19482L28.5005 4.92602C28.4556 4.75611 28.3686 4.60021 28.2477 4.47262C28.1268 4.34503 27.9758 4.24983 27.8086 4.19575L27.4857 5.19482ZM15.1094 31.7246C14.2041 31.3003 13.3275 30.8162 12.4865 30.2756L11.3514 32.0423C12.2706 32.6331 13.2281 33.1623 14.2174 33.6262L15.1094 31.7246ZM12.4865 30.2756C8.84037 27.932 5.9452 24.5899 4.14475 20.6471L2.23375 21.5197C4.20162 25.8286 7.36648 29.4811 11.3514 32.0423L12.4865 30.2756ZM4.14475 20.6471C2.34396 16.7048 1.71417 12.3279 2.33035 8.0377L0.251349 7.73845C-0.422526 12.4272 0.265932 17.2108 2.23375 21.5197L4.14475 20.6471ZM2.33035 8.0377C2.45489 7.17023 2.62983 6.31075 2.8543 5.46362L0.825174 4.9255C0.579802 5.85141 0.388028 6.79083 0.251874 7.73897L2.33035 8.0377ZM2.16235 6.1939L14.9849 2.04902L14.3397 0.0508745L1.5166 4.19575L2.16235 6.1939ZM14.3392 2.04902L27.1623 6.1939L27.8086 4.19575L14.9849 0.0508745L14.3392 2.04902ZM26.4698 5.46362C26.6945 6.31074 26.8696 7.17022 26.9943 8.0377L29.0733 7.73897C28.937 6.79117 28.7461 5.85158 28.5005 4.92602L26.4698 5.46362ZM26.9943 8.0377C27.6109 12.3279 26.9815 16.705 25.181 20.6477L27.0914 21.5197C29.0591 17.2108 29.7468 12.4272 29.0728 7.73845L26.9943 8.0377ZM25.181 20.6477C23.3804 24.5902 20.4847 27.9322 16.8387 30.2756L17.9738 32.0423C21.9589 29.4812 25.1234 25.8287 27.0914 21.5197L25.181 20.6477ZM16.8387 30.2756C15.9976 30.8162 15.1216 31.3003 14.2163 31.7246L15.1083 33.6262C16.0975 33.1622 17.0547 32.6331 17.9738 32.0423L16.8387 30.2756Z" fill="var(--fill-0, #2F80ED)"/>
<path id="Vector_3" fill-rule="evenodd" clip-rule="evenodd" d="M14.6626 26.7067C11.4027 25.1846 8.78916 22.5544 7.28792 19.2848C5.82559 16.0945 5.5186 12.4948 6.41957 9.10292L14.6626 6.44695L22.9056 9.1024C23.0565 9.66835 23.1741 10.2427 23.2584 10.8254C23.6735 13.7038 23.2497 16.6407 22.0378 19.2842C20.5365 22.5541 17.9228 25.1846 14.6626 26.7067Z" fill="var(--fill-0, #56CCF2)"/>
<path id="Vector_4" d="M14.6626 26.7067L14.2184 27.658C14.3575 27.7229 14.5091 27.7566 14.6626 27.7566C14.8161 27.7566 14.9677 27.7229 15.1067 27.658L14.6626 26.7067ZM6.41957 9.1024L6.09775 8.1028C5.93037 8.15668 5.77921 8.25174 5.65812 8.37924C5.53704 8.50674 5.44992 8.66261 5.40475 8.83255L6.41957 9.1024ZM14.6626 6.44695L14.9844 5.44787C14.7752 5.38049 14.55 5.38049 14.3408 5.44787L14.6626 6.44695ZM22.9056 9.1024L23.9204 8.83255C23.8753 8.66261 23.7882 8.50674 23.6671 8.37924C23.546 8.25174 23.3948 8.15668 23.2274 8.1028L22.9056 9.1024ZM15.1067 25.7554C14.5391 25.4902 13.9896 25.1877 13.4619 24.8498L12.3295 26.6185C12.9355 27.0064 13.5665 27.3536 14.2184 27.658L15.1067 25.7554ZM13.4619 24.8498C11.1829 23.3904 9.37119 21.307 8.24237 18.8474L6.33347 19.7221C7.62999 22.548 9.71126 24.9418 12.3295 26.6185L13.4619 24.8498ZM8.24237 18.8474C7.1146 16.3875 6.72014 13.6546 7.10627 10.9761L5.0278 10.6758C4.58401 13.7541 5.03734 16.895 6.33347 19.7221L8.24237 18.8474ZM7.10627 10.9761C7.18502 10.4336 7.2944 9.89917 7.4344 9.37277L5.40475 8.83255C5.24366 9.43919 5.1178 10.0546 5.0278 10.6758L7.10627 10.9761ZM6.7414 10.102L14.9844 7.44707L14.3408 5.44787L6.09775 8.1028L6.7414 10.102ZM14.3408 7.44707L22.5838 10.1025L23.228 8.10332L14.9844 5.44787L14.3408 7.44707ZM21.8913 9.37277C22.0313 9.89917 22.1405 10.4336 22.2189 10.9761L24.2979 10.6758C24.2077 10.0548 24.0817 9.43953 23.9204 8.83307L21.8913 9.37277ZM22.2189 10.9761C22.6052 13.6545 22.2109 16.3875 21.0833 18.8474L22.9922 19.7221C24.2881 16.8951 24.7413 13.7544 24.2974 10.6763L22.2189 10.9761ZM21.0833 18.8474C19.9544 21.3071 18.1425 23.3905 15.8633 24.8498L16.9957 26.6185C19.6141 24.9419 21.6956 22.5481 22.9922 19.7221L21.0833 18.8474ZM15.8633 24.8498C15.3356 25.1875 14.7861 25.4899 14.2184 25.7549L15.1067 27.658C15.7589 27.3537 16.3895 27.0064 16.9957 26.6185L15.8633 24.8498Z" fill="var(--fill-0, #56CCF2)"/>
</g>
</svg>
