<svg preserveAspectRatio="none" width="100%" height="100%" overflow="visible" style="display: block;" viewBox="0 0 31.8463 31.9587" fill="none" xmlns="http://www.w3.org/2000/svg">
<g id="Group">
<path id="Vector" fill-rule="evenodd" clip-rule="evenodd" d="M22.6549 1.13368C20.1296 0.0875281 17.3651 -0.243293 14.6644 0.177475C11.9636 0.598243 9.43073 1.75436 7.34341 3.51913C5.2561 5.2839 3.69486 7.5892 2.83081 10.1824C1.96676 12.7756 1.83324 15.5566 2.44488 18.2207L16.7299 13.9777C17.4959 13.7497 18.2099 14.4632 17.9819 15.2297L13.7629 29.4317C17.3979 30.2302 21.2002 29.6383 24.4205 27.7728C27.6409 25.9073 30.0458 22.9033 31.1615 19.3528C32.2772 15.8022 32.0227 11.9626 30.4482 8.59037C28.8737 5.21815 26.0933 2.55787 22.6549 1.13368ZM10.3879 28.2507L9.46138 26.0597L8.42788 27.0932C9.04788 27.5267 9.70288 27.9142 10.3879 28.2507ZM4.84738 23.5517L5.89988 22.4987L3.63688 21.5417C3.98712 22.2422 4.39219 22.9143 4.84738 23.5517Z" fill="var(--fill-0, #F2C94C)"/>
<path id="Vector_2" fill-rule="evenodd" clip-rule="evenodd" d="M20.5179 6.29218C18.9674 5.64997 17.272 5.43903 15.6114 5.6817C13.9508 5.92438 12.3867 6.61164 11.0848 7.6707C9.78286 8.72976 8.7916 10.1212 8.21596 11.6977C7.64032 13.2741 7.50174 14.9769 7.81488 16.6257L16.7299 13.9772C17.4964 13.7497 18.2099 14.4632 17.9824 15.2297L15.3599 24.0572C17.617 24.4508 19.94 23.9978 21.8839 22.7851C23.8279 21.5723 25.256 19.685 25.8949 17.4847C26.5337 15.2843 26.3384 12.9257 25.3462 10.8604C24.3541 8.79519 22.6348 7.16859 20.5179 6.29218Z" fill="var(--fill-0, #F2994A)"/>
<path id="Vector_3" fill-rule="evenodd" clip-rule="evenodd" d="M18.3814 11.4502C17.806 11.2117 17.1799 11.1214 16.5606 11.1876C15.9412 11.2538 15.3484 11.4744 14.8364 11.8292C14.3244 12.1839 13.9096 12.6615 13.6301 13.2181C13.3506 13.7748 13.2152 14.3927 13.2364 15.0152L16.7299 13.9772C17.4964 13.7497 18.2099 14.4632 17.9824 15.2297L16.9774 18.6117C17.7102 18.6079 18.4256 18.3878 19.0337 17.979C19.6419 17.5702 20.1158 16.9908 20.3959 16.3137C20.7736 15.4015 20.7735 14.3767 20.3956 13.4646C20.0178 12.5525 19.2935 11.8279 18.3814 11.4502Z" fill="var(--fill-0, #EB5757)"/>
<path id="Vector_4" fill-rule="evenodd" clip-rule="evenodd" d="M13.3764 30.7347C13.1074 31.6407 11.8514 31.7107 11.4829 30.8402L9.46088 26.0597L5.29188 30.2287C5.19835 30.3223 5.08729 30.3966 4.96503 30.4473C4.84277 30.498 4.71172 30.5241 4.57938 30.5241C4.44703 30.5241 4.31598 30.498 4.19373 30.4473C4.07147 30.3966 3.9604 30.3223 3.86688 30.2287L1.73088 28.0922C1.63731 27.9987 1.56309 27.8876 1.51245 27.7654C1.46181 27.6432 1.43574 27.5122 1.43574 27.3799C1.43574 27.2476 1.46181 27.1167 1.51245 26.9944C1.56309 26.8722 1.63731 26.7612 1.73088 26.6677L5.89988 22.4987L1.11838 20.4767C0.248378 20.1087 0.318378 18.8527 1.22388 18.5832L16.7299 13.9772C17.4964 13.7497 18.2099 14.4632 17.9824 15.2297L13.3764 30.7347Z" fill="var(--fill-0, #F2F2F2)"/>
<path id="Vector_5" d="M9.46138 26.0597L9.92488 25.8632C9.89277 25.7872 9.84247 25.7202 9.77841 25.6682C9.71434 25.6162 9.63847 25.5807 9.55747 25.5649C9.47648 25.5491 9.39284 25.5534 9.31391 25.5775C9.23499 25.6017 9.16321 25.6448 9.10488 25.7032L9.46138 26.0597ZM5.89988 22.4987L6.25588 22.8547C6.31425 22.7964 6.3574 22.7246 6.38151 22.6456C6.40563 22.5667 6.40997 22.4831 6.39417 22.4021C6.37837 22.3211 6.3429 22.2452 6.29088 22.1812C6.23887 22.1171 6.1719 22.0668 6.09588 22.0347L5.89988 22.4987ZM11.0194 31.0367C11.5714 32.3417 13.4554 32.2367 13.8594 30.8782L12.8934 30.5917C12.7589 31.0442 12.1309 31.0792 11.9469 30.6442L11.0194 31.0367ZM8.99738 26.2557L11.0194 31.0367L11.9469 30.6442L9.92488 25.8632L8.99738 26.2557ZM9.10488 25.7032L4.93588 29.8732L5.64788 30.5852L9.81738 26.4157L9.10488 25.7032ZM4.93588 29.8732C4.88912 29.92 4.83358 29.9571 4.77245 29.9825C4.71133 30.0078 4.6458 30.0209 4.57963 30.0209C4.51345 30.0209 4.44793 30.0078 4.3868 29.9825C4.32567 29.9571 4.27014 29.92 4.22338 29.8732L3.51138 30.5852C3.65161 30.7256 3.81814 30.8369 4.00144 30.9129C4.18473 30.9889 4.38121 31.028 4.57963 31.028C4.77805 31.028 4.97452 30.9889 5.15782 30.9129C5.34112 30.8369 5.50764 30.7256 5.64788 30.5852L4.93588 29.8732ZM4.22338 29.8732L2.08688 27.7362L1.37438 28.4482L3.51138 30.5852L4.22338 29.8732ZM2.08688 27.7362C2.04006 27.6894 2.00291 27.6339 1.97757 27.5728C1.95223 27.5116 1.93918 27.4461 1.93918 27.3799C1.93918 27.3138 1.95223 27.2482 1.97757 27.1871C2.00291 27.126 2.04006 27.0704 2.08688 27.0237L1.37438 26.3117C1.23401 26.4519 1.12265 26.6184 1.04667 26.8017C0.970696 26.985 0.93159 27.1815 0.93159 27.3799C0.93159 27.5784 0.970696 27.7748 1.04667 27.9581C1.12265 28.1414 1.23401 28.3079 1.37438 28.4482L2.08688 27.7362ZM2.08688 27.0237L6.25588 22.8547L5.54338 22.1427L1.37438 26.3117L2.08688 27.0237ZM0.922378 20.9402L5.70338 22.9627L6.09588 22.0347L1.31488 20.0127L0.922378 20.9402ZM1.08088 18.1002C-0.278122 18.5042 -0.383122 20.3882 0.922378 20.9402L1.31488 20.0127C0.879878 19.8287 0.914878 19.2007 1.36738 19.0662L1.08088 18.1002ZM16.5864 13.4947L1.08088 18.1007L1.36738 19.0657L16.8734 14.4602L16.5864 13.4947ZM18.4649 15.3732C18.8064 14.2232 17.7364 13.1532 16.5864 13.4947L16.8734 14.4602C16.9604 14.4343 17.0527 14.4319 17.1407 14.4543C17.2286 14.4766 17.3089 14.5222 17.373 14.5864C17.4372 14.6506 17.4828 14.7309 17.505 14.8189C17.5273 14.9069 17.5253 14.9992 17.4994 15.0862L18.4649 15.3732ZM13.8589 30.8782L18.4649 15.3732L17.4994 15.0862L12.8934 30.5917L13.8589 30.8782Z" fill="var(--fill-0, #F2F2F2)"/>
</g>
</svg>
