<svg preserveAspectRatio="none" width="100%" height="100%" overflow="visible" style="display: block;" viewBox="0 0 33.6 33.6" fill="none" xmlns="http://www.w3.org/2000/svg">
<g id="Group">
<path id="Vector" d="M21.21 33.6H1.89C1.38874 33.6 0.908012 33.4009 0.553568 33.0464C0.199125 32.692 6.43345e-08 32.2113 6.43345e-08 31.71C-0.000200241 30.1855 0.467339 28.6976 1.33951 27.4471C2.21168 26.1967 3.44648 25.244 4.87725 24.7175L5.62012 24.4445C9.44785 23.0357 13.6521 23.0357 17.4799 24.4445L18.2222 24.7175C19.6531 25.2439 20.888 26.1966 21.7603 27.447C22.6325 28.6974 23.1002 30.1854 23.1 31.71C23.1 32.2113 22.9009 32.692 22.5464 33.0464C22.192 33.4009 21.7113 33.6 21.21 33.6ZM8.6478 18.9063C9.52605 19.3492 10.494 19.5853 11.4776 19.5964C12.4612 19.6075 13.4342 19.3933 14.3222 18.9703C15.2102 18.5472 15.9897 17.9266 16.6008 17.1558C17.2119 16.3851 17.6385 15.4847 17.8479 14.5236L17.9256 14.1666C18.3456 12.2383 17.8994 10.2228 16.7034 8.65305L16.5795 8.4903C15.9896 7.71577 15.2288 7.08794 14.3564 6.65575C13.484 6.22357 12.5236 5.99871 11.55 5.99871C10.5764 5.99871 9.61598 6.22357 8.74358 6.65575C7.87118 7.08794 7.11038 7.71577 6.5205 8.4903L6.3966 8.65305C5.80596 9.42884 5.39079 10.3236 5.17977 11.2756C4.96875 12.2275 4.96692 13.2139 5.1744 14.1666L5.2521 14.5236C5.45639 15.4607 5.86719 16.3403 6.45454 17.0985C7.04189 17.8567 7.79152 18.4743 8.6478 18.9063Z" fill="var(--fill-0, #EB5757)"/>
<path id="Vector_2" fill-rule="evenodd" clip-rule="evenodd" d="M23.1 0C22.543 0 22.0089 0.221249 21.6151 0.615076C21.2212 1.0089 21 1.54305 21 2.1V7.79992C21 8.35688 21.2212 8.89102 21.6151 9.28485C22.0089 9.67867 22.543 9.89992 23.1 9.89992H23.7001V12.6L27.3 9.89992H31.5C32.057 9.89992 32.5911 9.67867 32.9849 9.28485C33.3788 8.89102 33.6 8.35688 33.6 7.79992V2.1C33.6 1.54305 33.3788 1.0089 32.9849 0.615076C32.5911 0.221249 32.057 0 31.5 0H23.1Z" fill="var(--fill-0, #F2C94C)"/>
</g>
</svg>
