<svg preserveAspectRatio="none" width="100%" height="100%" overflow="visible" style="display: block;" viewBox="0 0 35.7 30.45" fill="none" xmlns="http://www.w3.org/2000/svg">
<g id="Group">
<path id="Vector" fill-rule="evenodd" clip-rule="evenodd" d="M12.075 16.8C12.3535 16.8 12.6205 16.9106 12.8175 17.1075C13.0144 17.3044 13.125 17.5715 13.125 17.85V28.35C13.125 28.6285 13.0144 28.8955 12.8175 29.0925C12.6205 29.2894 12.3535 29.4 12.075 29.4H4.725C4.44652 29.4 4.17945 29.2894 3.98254 29.0925C3.78562 28.8955 3.675 28.6285 3.675 28.35V17.85C3.675 17.5715 3.78562 17.3044 3.98254 17.1075C4.17945 16.9106 4.44652 16.8 4.725 16.8H12.075Z" fill="var(--fill-0, #219653)"/>
<path id="Vector_2" fill-rule="evenodd" clip-rule="evenodd" d="M21.525 8.4C21.8035 8.4 22.0705 8.51062 22.2675 8.70754C22.4644 8.90445 22.575 9.17152 22.575 9.45V28.35C22.575 28.6285 22.4644 28.8955 22.2675 29.0925C22.0705 29.2894 21.8035 29.4 21.525 29.4H14.175C13.8965 29.4 13.6295 29.2894 13.4325 29.0925C13.2356 28.8955 13.125 28.6285 13.125 28.35V9.45C13.125 9.17152 13.2356 8.90445 13.4325 8.70754C13.6295 8.51062 13.8965 8.4 14.175 8.4H21.525Z" fill="var(--fill-0, #2F80ED)"/>
<path id="Vector_3" fill-rule="evenodd" clip-rule="evenodd" d="M30.975 0C31.2535 0 31.5205 0.110625 31.7175 0.307538C31.9144 0.504451 32.025 0.771523 32.025 1.05V28.35C32.025 28.6285 31.9144 28.8955 31.7175 29.0925C31.5205 29.2894 31.2535 29.4 30.975 29.4H23.625C23.3465 29.4 23.0794 29.2894 22.8825 29.0925C22.6856 28.8955 22.575 28.6285 22.575 28.35V1.05C22.575 0.771523 22.6856 0.504451 22.8825 0.307538C23.0794 0.110625 23.3465 0 23.625 0H30.975Z" fill="var(--fill-0, #F2C94C)"/>
<path id="Vector_4" d="M34.65 29.4H1.05" stroke="var(--stroke-0, #4F4F4F)" stroke-width="2.1" stroke-linecap="round" stroke-linejoin="round"/>
</g>
</svg>
