<svg preserveAspectRatio="none" width="100%" height="100%" overflow="visible" style="display: block;" viewBox="0 0 34.65 31.5" fill="none" xmlns="http://www.w3.org/2000/svg">
<g id="Group">
<path id="Vector" fill-rule="evenodd" clip-rule="evenodd" d="M13.65 30.45C13.9285 30.45 14.1955 30.3394 14.3925 30.1425C14.5894 29.9455 14.7 29.6785 14.7 29.4V14.7C14.7 14.4215 14.5894 14.1544 14.3925 13.9575C14.1955 13.7606 13.9285 13.65 13.65 13.65H11.55C11.2715 13.65 11.0045 13.7606 10.8075 13.9575C10.6106 14.1544 10.5 14.4215 10.5 14.7V29.4C10.5 29.6785 10.6106 29.9455 10.8075 30.1425C11.0045 30.3394 11.2715 30.45 11.55 30.45H13.65ZM4.2 30.45C4.47848 30.45 4.74555 30.3394 4.94246 30.1425C5.13938 29.9455 5.25 29.6785 5.25 29.4V24.15C5.25 23.8715 5.13938 23.6044 4.94246 23.4075C4.74555 23.2106 4.47848 23.1 4.2 23.1H2.1C1.82152 23.1 1.55445 23.2106 1.35754 23.4075C1.16063 23.6044 1.05 23.8715 1.05 24.15V29.4C1.05 29.6785 1.16063 29.9455 1.35754 30.1425C1.55445 30.3394 1.82152 30.45 2.1 30.45H4.2ZM23.1 21C23.3785 21 23.6455 21.1106 23.8425 21.3075C24.0394 21.5044 24.15 21.7715 24.15 22.05V29.4C24.15 29.6785 24.0394 29.9455 23.8425 30.1425C23.6455 30.3394 23.3785 30.45 23.1 30.45H21C20.7215 30.45 20.4544 30.3394 20.2575 30.1425C20.0606 29.9455 19.95 29.6785 19.95 29.4V22.05C19.95 21.7715 20.0606 21.5044 20.2575 21.3075C20.4544 21.1106 20.7215 21 21 21H23.1ZM32.55 30.45C32.8285 30.45 33.0955 30.3394 33.2925 30.1425C33.4894 29.9455 33.6 29.6785 33.6 29.4V14.7C33.6 14.4215 33.4894 14.1544 33.2925 13.9575C33.0955 13.7606 32.8285 13.65 32.55 13.65H30.45C30.1715 13.65 29.9044 13.7606 29.7075 13.9575C29.5106 14.1544 29.4 14.4215 29.4 14.7V29.4C29.4 29.6785 29.5106 29.9455 29.7075 30.1425C29.9044 30.3394 30.1715 30.45 30.45 30.45H32.55Z" fill="var(--fill-0, #219653)"/>
<path id="Vector_2" d="M13.65 14.7V29.4H15.75V14.7H13.65ZM11.55 14.7H13.65V12.6H11.55V14.7ZM11.55 29.4V14.7H9.45V29.4H11.55ZM13.65 29.4H11.55V31.5H13.65V29.4ZM4.2 24.15V29.4H6.3V24.15H4.2ZM2.1 24.15H4.2V22.05H2.1V24.15ZM2.1 29.4V24.15H0V29.4H2.1ZM4.2 29.4H2.1V31.5H4.2V29.4ZM25.2 29.4V22.05H23.1V29.4H25.2ZM21 31.5H23.1V29.4H21V31.5ZM18.9 22.05V29.4H21V22.05H18.9ZM23.1 19.95H21V22.05H23.1V19.95ZM32.55 14.7V29.4H34.65V14.7H32.55ZM30.45 14.7H32.55V12.6H30.45V14.7ZM30.45 29.4V14.7H28.35V29.4H30.45ZM32.55 29.4H30.45V31.5H32.55V29.4ZM28.35 29.4C28.35 29.957 28.5712 30.4911 28.9651 30.8849C29.3589 31.2788 29.893 31.5 30.45 31.5V29.4H28.35ZM30.45 12.6C29.893 12.6 29.3589 12.8212 28.9651 13.2151C28.5712 13.6089 28.35 14.143 28.35 14.7H30.45V12.6ZM32.55 29.4V31.5C33.107 31.5 33.6411 31.2788 34.0349 30.8849C34.4288 30.4911 34.65 29.957 34.65 29.4H32.55ZM34.65 14.7C34.65 14.143 34.4288 13.6089 34.0349 13.2151C33.6411 12.8212 33.107 12.6 32.55 12.6V14.7H34.65ZM21 22.05V19.95C20.443 19.95 19.9089 20.1712 19.5151 20.5651C19.1212 20.9589 18.9 21.493 18.9 22.05H21ZM21 29.4H18.9C18.9 29.957 19.1212 30.4911 19.5151 30.8849C19.9089 31.2788 20.443 31.5 21 31.5V29.4ZM25.2 22.05C25.2 21.493 24.9787 20.9589 24.5849 20.5651C24.1911 20.1712 23.657 19.95 23.1 19.95V22.05H25.2ZM23.1 29.4V31.5C23.657 31.5 24.1911 31.2788 24.5849 30.8849C24.9787 30.4911 25.2 29.957 25.2 29.4H23.1ZM0 29.4C0 29.957 0.221249 30.4911 0.615076 30.8849C1.0089 31.2788 1.54305 31.5 2.1 31.5V29.4H0ZM2.1 22.05C1.54305 22.05 1.0089 22.2712 0.615076 22.6651C0.221249 23.0589 0 23.593 0 24.15H2.1V22.05ZM4.2 29.4V31.5C4.75695 31.5 5.2911 31.2788 5.68492 30.8849C6.07875 30.4911 6.3 29.957 6.3 29.4H4.2ZM6.3 24.15C6.3 23.593 6.07875 23.0589 5.68492 22.6651C5.2911 22.2712 4.75695 22.05 4.2 22.05V24.15H6.3ZM9.45 29.4C9.45 29.957 9.67125 30.4911 10.0651 30.8849C10.4589 31.2788 10.993 31.5 11.55 31.5V29.4H9.45ZM11.55 12.6C10.993 12.6 10.4589 12.8212 10.0651 13.2151C9.67125 13.6089 9.45 14.143 9.45 14.7H11.55V12.6ZM13.65 29.4V31.5C14.207 31.5 14.7411 31.2788 15.1349 30.8849C15.5287 30.4911 15.75 29.957 15.75 29.4H13.65ZM15.75 14.7C15.75 14.143 15.5287 13.6089 15.1349 13.2151C14.7411 12.8212 14.207 12.6 13.65 12.6V14.7H15.75Z" fill="var(--fill-0, #219653)"/>
<path id="Vector_3" d="M4.2 10.0648C4.00305 10.2618 3.89243 10.529 3.89248 10.8076C3.89253 11.0862 4.00324 11.3533 4.20026 11.5503C4.39729 11.7472 4.66448 11.8578 4.94306 11.8578C5.22164 11.8577 5.4888 11.747 5.68575 11.55L4.2 10.0648ZM11.55 5.6847C11.6503 5.58784 11.7303 5.47198 11.7853 5.34387C11.8403 5.21577 11.8693 5.07799 11.8705 4.93857C11.8717 4.79915 11.8452 4.66089 11.7924 4.53185C11.7396 4.40281 11.6616 4.28557 11.563 4.18698C11.4644 4.0884 11.3472 4.01043 11.2182 3.95764C11.0891 3.90484 10.9508 3.87828 10.8114 3.87949C10.672 3.8807 10.5342 3.90966 10.4061 3.96469C10.278 4.01972 10.1622 4.09971 10.0653 4.2L11.55 5.6847ZM15.2082 3.95692C15.1028 3.86474 14.9801 3.79456 14.8472 3.75051C14.7143 3.70646 14.5739 3.68944 14.4343 3.70044C14.2948 3.71144 14.1588 3.75024 14.0344 3.81457C13.9101 3.87889 13.7998 3.96744 13.7102 4.075C13.6206 4.18256 13.5534 4.30695 13.5125 4.44087C13.4717 4.57479 13.458 4.71552 13.4724 4.8548C13.4867 4.99407 13.5288 5.12906 13.5961 5.25184C13.6634 5.37462 13.7545 5.4827 13.8642 5.56972L15.2082 3.95692ZM19.4418 10.2181C19.6563 10.3917 19.9305 10.474 20.2051 10.4471C20.4797 10.4202 20.7327 10.2862 20.9094 10.0742C21.086 9.86214 21.1721 9.5891 21.1489 9.31412C21.1258 9.03913 20.9954 8.7843 20.7858 8.60475L19.4418 10.2181ZM23.3142 8.60475C23.1046 8.7843 22.9742 9.03913 22.9511 9.31412C22.9279 9.5891 23.014 9.86214 23.1906 10.0742C23.3673 10.2862 23.6203 10.4202 23.8949 10.4471C24.1695 10.474 24.4437 10.3917 24.6582 10.2181L23.3142 8.60475ZM30.2363 5.57025C30.3423 5.48197 30.4298 5.37368 30.4938 5.25158C30.5579 5.12948 30.5973 4.99595 30.6098 4.85862C30.6223 4.72129 30.6076 4.58285 30.5666 4.45119C30.5256 4.31954 30.459 4.19726 30.3707 4.09132C30.2824 3.98539 30.1742 3.89789 30.0521 3.8338C29.93 3.76972 29.7964 3.73031 29.6591 3.71783C29.5218 3.70535 29.3833 3.72004 29.2517 3.76106C29.12 3.80209 28.9977 3.86864 28.8918 3.95692L30.2363 5.57025ZM5.68575 11.55L11.55 5.6847L10.0653 4.2L4.2 10.0648L5.68575 11.55ZM13.8642 5.57025L19.4418 10.2181L20.7858 8.60475L15.2082 3.95692L13.8642 5.57025ZM24.6582 10.2181L30.2363 5.57025L28.8918 3.95692L23.3142 8.60475L24.6582 10.2181Z" fill="var(--fill-0, #4F4F4F)"/>
<path id="Vector_4" fill-rule="evenodd" clip-rule="evenodd" d="M14.7 2.1C14.7 1.82152 14.5894 1.55445 14.3925 1.35754C14.1955 1.16062 13.9285 1.05 13.65 1.05H11.55C11.2715 1.05 11.0045 1.16062 10.8075 1.35754C10.6106 1.55445 10.5 1.82152 10.5 2.1V4.2C10.5 4.47848 10.6106 4.74555 10.8075 4.94246C11.0045 5.13937 11.2715 5.25 11.55 5.25H13.65C13.9285 5.25 14.1955 5.13937 14.3925 4.94246C14.5894 4.74555 14.7 4.47848 14.7 4.2V2.1ZM5.25 11.55C5.25 11.2715 5.13938 11.0045 4.94246 10.8075C4.74555 10.6106 4.47848 10.5 4.2 10.5H2.1C1.82152 10.5 1.55445 10.6106 1.35754 10.8075C1.16063 11.0045 1.05 11.2715 1.05 11.55V13.65C1.05 13.9285 1.16063 14.1955 1.35754 14.3925C1.55445 14.5894 1.82152 14.7 2.1 14.7H4.2C4.47848 14.7 4.74555 14.5894 4.94246 14.3925C5.13938 14.1955 5.25 13.9285 5.25 13.65V11.55ZM19.95 9.975C19.95 9.69652 20.0606 9.42945 20.2575 9.23254C20.4544 9.03562 20.7215 8.925 21 8.925H23.1C23.3785 8.925 23.6455 9.03562 23.8425 9.23254C24.0394 9.42945 24.15 9.69652 24.15 9.975V12.075C24.15 12.3535 24.0394 12.6205 23.8425 12.8175C23.6455 13.0144 23.3785 13.125 23.1 13.125H21C20.7215 13.125 20.4544 13.0144 20.2575 12.8175C20.0606 12.6205 19.95 12.3535 19.95 12.075V9.975ZM33.6 2.1C33.6 1.82152 33.4894 1.55445 33.2925 1.35754C33.0955 1.16062 32.8285 1.05 32.55 1.05H30.45C30.1715 1.05 29.9044 1.16062 29.7075 1.35754C29.5106 1.55445 29.4 1.82152 29.4 2.1V4.2C29.4 4.47848 29.5106 4.74555 29.7075 4.94246C29.9044 5.13937 30.1715 5.25 30.45 5.25H32.55C32.8285 5.25 33.0955 5.13937 33.2925 4.94246C33.4894 4.74555 33.6 4.47848 33.6 4.2V2.1Z" fill="var(--fill-0, #219653)"/>
<path id="Vector_5" d="M11.55 2.1H13.65V0H11.55V2.1ZM11.55 4.2V2.1H9.45V4.2H11.55ZM13.65 4.2H11.55V6.3H13.65V4.2ZM13.65 2.1V4.2H15.75V2.1H13.65ZM2.1 11.55H4.2V9.45H2.1V11.55ZM2.1 13.65V11.55H0V13.65H2.1ZM4.2 13.65H2.1V15.75H4.2V13.65ZM4.2 11.55V13.65H6.3V11.55H4.2ZM23.1 7.875H21V9.975H23.1V7.875ZM25.2 12.075V9.975H23.1V12.075H25.2ZM21 14.175H23.1V12.075H21V14.175ZM18.9 9.975V12.075H21V9.975H18.9ZM30.45 2.1H32.55V0H30.45V2.1ZM30.45 4.2V2.1H28.35V4.2H30.45ZM32.55 4.2H30.45V6.3H32.55V4.2ZM32.55 2.1V4.2H34.65V2.1H32.55ZM32.55 6.3C33.107 6.3 33.6411 6.07875 34.0349 5.68492C34.4288 5.2911 34.65 4.75695 34.65 4.2H32.55V6.3ZM28.35 4.2C28.35 4.75695 28.5712 5.2911 28.9651 5.68492C29.3589 6.07875 29.893 6.3 30.45 6.3V4.2H28.35ZM32.55 2.1H34.65C34.65 1.54305 34.4288 1.0089 34.0349 0.615076C33.6411 0.221249 33.107 0 32.55 0V2.1ZM30.45 0C29.893 0 29.3589 0.221249 28.9651 0.615076C28.5712 1.0089 28.35 1.54305 28.35 2.1H30.45V0ZM21 12.075H18.9C18.9 12.632 19.1212 13.1661 19.5151 13.5599C19.9089 13.9537 20.443 14.175 21 14.175V12.075ZM23.1 12.075V14.175C23.657 14.175 24.1911 13.9537 24.5849 13.5599C24.9787 13.1661 25.2 12.632 25.2 12.075H23.1ZM21 7.875C20.443 7.875 19.9089 8.09625 19.5151 8.49008C19.1212 8.8839 18.9 9.41804 18.9 9.975H21V7.875ZM23.1 9.975H25.2C25.2 9.41804 24.9787 8.8839 24.5849 8.49008C24.1911 8.09625 23.657 7.875 23.1 7.875V9.975ZM4.2 15.75C4.75695 15.75 5.2911 15.5287 5.68492 15.1349C6.07875 14.7411 6.3 14.207 6.3 13.65H4.2V15.75ZM0 13.65C0 14.207 0.221249 14.7411 0.615076 15.1349C1.0089 15.5287 1.54305 15.75 2.1 15.75V13.65H0ZM4.2 11.55H6.3C6.3 10.993 6.07875 10.4589 5.68492 10.0651C5.2911 9.67125 4.75695 9.45 4.2 9.45V11.55ZM2.1 9.45C1.54305 9.45 1.0089 9.67125 0.615076 10.0651C0.221249 10.4589 0 10.993 0 11.55H2.1V9.45ZM13.65 6.3C14.207 6.3 14.7411 6.07875 15.1349 5.68492C15.5287 5.2911 15.75 4.75695 15.75 4.2H13.65V6.3ZM9.45 4.2C9.45 4.75695 9.67125 5.2911 10.0651 5.68492C10.4589 6.07875 10.993 6.3 11.55 6.3V4.2H9.45ZM13.65 2.1H15.75C15.75 1.54305 15.5287 1.0089 15.1349 0.615076C14.7411 0.221249 14.207 0 13.65 0V2.1ZM11.55 0C10.993 0 10.4589 0.221249 10.0651 0.615076C9.67125 1.0089 9.45 1.54305 9.45 2.1H11.55V0Z" fill="var(--fill-0, #219653)"/>
</g>
</svg>
