<svg preserveAspectRatio="none" width="100%" height="100%" overflow="visible" style="display: block;" viewBox="0 0 35.4913 28.4193" fill="none" xmlns="http://www.w3.org/2000/svg">
<g id="Group">
<path id="Vector" d="M30.0636 6.7767C29.8667 6.97365 29.7561 7.24075 29.7562 7.51923C29.7562 7.79772 29.8669 8.06478 30.0639 8.26166C30.2608 8.45854 30.5279 8.56913 30.8064 8.56908C31.0849 8.56903 31.3519 8.45835 31.5488 8.2614L30.0636 6.7767ZM33.7118 6.09787C33.9087 5.90092 34.0193 5.63382 34.0192 5.35534C34.0192 5.07685 33.9085 4.8098 33.7116 4.61291C33.5146 4.41603 33.2475 4.30545 32.969 4.3055C32.6905 4.30555 32.4235 4.41622 32.2266 4.61317L33.7118 6.09787ZM32.2266 3.12848C32.0296 2.93159 31.7625 2.82101 31.4841 2.82106C31.2056 2.82111 30.9385 2.93178 30.7416 3.12874C30.5448 3.32569 30.4342 3.59279 30.4342 3.87127C30.4343 4.14976 30.5449 4.41682 30.7419 4.6137L32.2266 3.12848ZM33.7118 7.5831C33.9099 7.77437 34.1751 7.8802 34.4504 7.87781C34.7257 7.87541 34.9891 7.76499 35.1837 7.57031C35.3784 7.37563 35.4888 7.11228 35.4912 6.83697C35.4936 6.56166 35.3878 6.29643 35.1965 6.0984L33.7118 7.5831ZM21.525 4.1097C21.525 4.38818 21.6356 4.65525 21.8325 4.85216C22.0294 5.04907 22.2965 5.1597 22.575 5.1597C22.8535 5.1597 23.1205 5.04907 23.3175 4.85216C23.5144 4.65525 23.625 4.38818 23.625 4.1097H21.525ZM23.625 1.05052C23.625 0.772047 23.5144 0.504976 23.3175 0.308063C23.1205 0.11115 22.8535 0.000524712 22.575 0.000524712C22.2965 0.000524712 22.0294 0.11115 21.8325 0.308063C21.6356 0.504976 21.525 0.772047 21.525 1.05052H23.625ZM19.95 0.000524712C19.6715 0.000524712 19.4044 0.11115 19.2075 0.308063C19.0106 0.504976 18.9 0.772047 18.9 1.05052C18.9 1.329 19.0106 1.59607 19.2075 1.79299C19.4044 1.9899 19.6715 2.10052 19.95 2.10052V0.000524712ZM25.2 2.10052C25.4785 2.10052 25.7455 1.9899 25.9425 1.79299C26.1394 1.59607 26.25 1.329 26.25 1.05052C26.25 0.772047 26.1394 0.504976 25.9425 0.308063C25.7455 0.11115 25.4785 0.000524712 25.2 0.000524712V2.10052ZM13.6012 8.2614C13.6987 8.35889 13.8145 8.43621 13.9419 8.48896C14.0693 8.5417 14.2058 8.56884 14.3437 8.56881C14.4816 8.56879 14.6181 8.54161 14.7455 8.48881C14.8729 8.43602 14.9887 8.35866 15.0861 8.26114C15.1836 8.16362 15.2609 8.04785 15.3137 7.92044C15.3664 7.79304 15.3936 7.65649 15.3936 7.5186C15.3935 7.38071 15.3663 7.24417 15.3136 7.11679C15.2608 6.9894 15.1834 6.87366 15.0859 6.77617L13.6012 8.2614ZM12.9229 4.61265C12.7259 4.41577 12.4587 4.30521 12.1802 4.30531C11.9016 4.30541 11.6345 4.41615 11.4376 4.61317C11.2408 4.8102 11.1302 5.07736 11.1303 5.3559C11.1304 5.63443 11.2412 5.90152 11.4382 6.0984L12.9229 4.61265ZM9.95295 6.0984C9.75607 6.29535 9.64549 6.56245 9.64554 6.84093C9.64558 7.11942 9.75626 7.38648 9.95321 7.58336C10.1502 7.78025 10.4173 7.89083 10.6957 7.89078C10.9742 7.89073 11.2413 7.78005 11.4382 7.5831L9.95295 6.0984ZM14.4081 4.61317C14.605 4.41622 14.7156 4.14912 14.7155 3.87064C14.7155 3.59215 14.6048 3.3251 14.4078 3.12821C14.2109 2.93133 13.9438 2.82075 13.6653 2.8208C13.3868 2.82085 13.1198 2.93152 12.9229 3.12848L14.4081 4.61317ZM31.5488 8.2614L33.7118 6.0984L32.2266 4.61317L30.0636 6.7767L31.5488 8.2614ZM30.7419 4.6137L33.7118 7.5831L35.1965 6.0984L32.2266 3.12848L30.7419 4.6137ZM23.625 4.1097V1.05052H21.525V4.1097H23.625ZM19.95 2.10052H25.2V0.000524712H19.95V2.10052ZM15.0859 6.77617L12.9234 4.61317L11.4376 6.09787L13.6012 8.2614L15.0859 6.77617ZM11.4382 7.5831L14.4081 4.61317L12.9229 3.12848L9.95295 6.09787L11.4382 7.5831Z" fill="var(--fill-0, #4F4F4F)"/>
<path id="Vector_2" d="M18.1204 4.99538C19.5342 4.40173 21.0514 4.09327 22.5849 4.08773C24.1183 4.08218 25.6377 4.37965 27.0558 4.96305C28.4739 5.54646 29.7628 6.40429 30.8484 7.48729C31.934 8.57028 32.7949 9.85709 33.3817 11.2738C33.9685 12.6905 34.2696 14.2092 34.2678 15.7426C34.2659 17.276 33.9611 18.794 33.3709 20.2093C32.7806 21.6245 31.9166 22.9093 30.8283 23.9896C29.7401 25.07 28.4491 25.9247 27.0296 26.5046C24.1806 27.6686 20.9866 27.657 18.1462 26.4724C15.3057 25.2877 13.0499 23.0265 11.8722 20.1832C10.6945 17.3398 10.6907 14.1458 11.8615 11.2996C13.0324 8.45349 15.2828 6.18683 18.1204 4.99538Z" fill="var(--fill-0, #F2F2F2)" stroke="var(--stroke-0, #BDBDBD)" stroke-width="2.1" stroke-linecap="round" stroke-linejoin="round"/>
<path id="Vector_3" d="M26.9188 11.802C27.0043 11.6926 27.0673 11.5674 27.1041 11.4335C27.1409 11.2997 27.1507 11.1599 27.1331 11.0222C27.1155 10.8845 27.0708 10.7516 27.0015 10.6313C26.9322 10.511 26.8398 10.4057 26.7295 10.3213C26.6192 10.237 26.4934 10.1754 26.3591 10.14C26.2249 10.1046 26.085 10.0962 25.9475 10.1153C25.81 10.1343 25.6776 10.1805 25.558 10.251C25.4385 10.3216 25.3341 10.4151 25.2509 10.5262L26.9188 11.802ZM22.6989 13.8616C22.6134 13.9709 22.5505 14.0962 22.5137 14.23C22.4769 14.3639 22.467 14.5037 22.4846 14.6414C22.5022 14.7791 22.547 14.9119 22.6163 15.0322C22.6855 15.1525 22.778 15.2579 22.8882 15.3422C22.9985 15.4266 23.1244 15.4882 23.2586 15.5236C23.3929 15.5589 23.5328 15.5673 23.6703 15.5483C23.8078 15.5292 23.9401 15.4831 24.0597 15.4126C24.1793 15.342 24.2837 15.2485 24.3668 15.1373L22.6989 13.8616ZM29.3575 20.8152C29.4774 20.8852 29.6101 20.9306 29.7477 20.949C29.8853 20.9673 30.0253 20.9582 30.1594 20.9221C30.2934 20.886 30.419 20.8237 30.5289 20.7388C30.6387 20.6538 30.7306 20.5479 30.7993 20.4272C30.8679 20.3065 30.9119 20.1734 30.9287 20.0355C30.9456 19.8977 30.9349 19.7579 30.8973 19.6242C30.8598 19.4905 30.7961 19.3656 30.7099 19.2567C30.6238 19.1478 30.5169 19.0571 30.3954 18.9898L29.3575 20.8152ZM24.4645 15.6156C24.3446 15.5474 24.2125 15.5035 24.0757 15.4864C23.9388 15.4693 23.8 15.4792 23.667 15.5158C23.534 15.5523 23.4096 15.6147 23.3007 15.6993C23.1918 15.784 23.1007 15.8892 23.0325 16.0091C22.9644 16.1289 22.9204 16.2611 22.9033 16.3979C22.8862 16.5347 22.8962 16.6736 22.9327 16.8065C22.9693 16.9395 23.0316 17.064 23.1163 17.1728C23.2009 17.2817 23.3062 17.3728 23.426 17.441L24.4645 15.6156ZM22.0505 15.7505C22.0505 15.6113 22.1058 15.4778 22.2043 15.3793C22.3027 15.2808 22.4363 15.2255 22.5755 15.2255V13.1255C21.8793 13.1255 21.2117 13.4021 20.7194 13.8944C20.2271 14.3867 19.9505 15.0543 19.9505 15.7505H22.0505ZM22.5755 16.2755C22.4363 16.2755 22.3027 16.2202 22.2043 16.1218C22.1058 16.0233 22.0505 15.8898 22.0505 15.7505H19.9505C19.9505 16.4467 20.2271 17.1144 20.7194 17.6067C21.2117 18.099 21.8793 18.3755 22.5755 18.3755V16.2755ZM23.1005 15.7505C23.1005 15.8898 23.0452 16.0233 22.9468 16.1218C22.8483 16.2202 22.7148 16.2755 22.5755 16.2755V18.3755C23.2717 18.3755 23.9394 18.099 24.4317 17.6067C24.924 17.1144 25.2005 16.4467 25.2005 15.7505H23.1005ZM22.5755 15.2255C22.7148 15.2255 22.8483 15.2808 22.9468 15.3793C23.0452 15.4778 23.1005 15.6113 23.1005 15.7505H25.2005C25.2005 15.0543 24.924 14.3867 24.4317 13.8944C23.9394 13.4021 23.2717 13.1255 22.5755 13.1255V15.2255ZM25.2509 10.5262L22.6989 13.8616L24.3668 15.1373L26.9188 11.802L25.2509 10.5262ZM30.3954 18.9898L24.4645 15.6156L23.426 17.441L29.3575 20.8152L30.3954 18.9898Z" fill="var(--fill-0, #EB5757)"/>
<path id="Vector_4" opacity="0.9" d="M8.925 24.675H3.675M7.35 20.475H2.1M6.3 16.275H1.05" stroke="var(--stroke-0, #828282)" stroke-width="2.1" stroke-linecap="round" stroke-linejoin="round"/>
</g>
</svg>
