<svg preserveAspectRatio="none" width="100%" height="100%" overflow="visible" style="display: block;" viewBox="0 0 35.3657 29.5856" fill="none" xmlns="http://www.w3.org/2000/svg">
<g id="Group">
<path id="Vector" d="M29.5048 9.23136C29.7833 9.23136 30.0503 9.12074 30.2473 8.92383C30.4442 8.72691 30.5548 8.45984 30.5548 8.18136C30.5548 7.90289 30.4442 7.63582 30.2473 7.4389C30.0503 7.24199 29.7833 7.13136 29.5048 7.13136V9.23136ZM16.6328 28.5356C16.6328 28.8141 16.7435 29.0812 16.9404 29.2781C17.1373 29.475 17.4044 29.5856 17.6828 29.5856C17.9613 29.5856 18.2284 29.475 18.4253 29.2781C18.6222 29.0812 18.7328 28.8141 18.7328 28.5356H16.6328ZM29.5048 7.13136H28.7078V9.23136H29.5048V7.13136ZM16.6328 19.2064V28.5356H18.7328V19.2058L16.6328 19.2064ZM28.7078 7.13136C22.0393 7.13136 16.6328 12.5378 16.6328 19.2064L18.7328 19.2058C18.7328 13.697 23.199 9.23136 28.7078 9.23136V7.13136Z" fill="var(--fill-0, #56CCF2)"/>
<g id="Vector_2">
<path d="M29.5053 14.6462V1.71651C29.5053 1.03034 30.4188 0.795664 30.7496 1.39626L34.1694 7.61226C34.2654 7.78669 34.3157 7.98255 34.3157 8.18163C34.3157 8.38071 34.2654 8.57656 34.1694 8.75099L30.7501 14.9659C30.4193 15.5665 29.5058 15.3319 29.5058 14.6457" fill="var(--fill-0, #2F80ED)"/>
<path d="M29.5053 14.6462V1.71651C29.5053 1.03034 30.4188 0.795664 30.7496 1.39626L34.1694 7.61226C34.2654 7.78669 34.3157 7.98255 34.3157 8.18163C34.3157 8.38071 34.2654 8.57656 34.1694 8.75099L30.7501 14.9659C30.4193 15.5665 29.5058 15.3319 29.5058 14.6457" stroke="var(--stroke-0, #2F80ED)" stroke-width="2.1" stroke-linecap="round" stroke-linejoin="round"/>
</g>
<path id="Vector_3" d="M5.8609 9.23136C5.58242 9.23136 5.31535 9.12074 5.11844 8.92383C4.92152 8.72691 4.8109 8.45984 4.8109 8.18136C4.8109 7.90289 4.92152 7.63581 5.11844 7.4389C5.31535 7.24199 5.58242 7.13136 5.8609 7.13136V9.23136ZM18.7328 28.5356C18.7328 28.8141 18.6222 29.0812 18.4253 29.2781C18.2284 29.475 17.9613 29.5856 17.6828 29.5856C17.4044 29.5856 17.1373 29.475 16.9404 29.2781C16.7435 29.0812 16.6328 28.8141 16.6328 28.5356H18.7328ZM5.8609 7.13084H6.65785V9.23084H5.8609V7.13084ZM18.7328 19.2058V28.5356H16.6328V19.2058H18.7328ZM6.65785 7.13084C13.3269 7.13084 18.7328 12.5373 18.7328 19.2058H16.6328C16.6328 13.697 12.1667 9.23084 6.65785 9.23084V7.13084Z" fill="var(--fill-0, #56CCF2)"/>
<g id="Vector_4">
<path d="M5.8609 14.6462V1.71651C5.8609 1.03034 4.94687 0.795664 4.61665 1.39626L1.19627 7.61226C1.10032 7.78669 1.05 7.98255 1.05 8.18163C1.05 8.38071 1.10032 8.57656 1.19627 8.75099L4.61612 14.9659C4.94687 15.5665 5.86037 15.3319 5.86037 14.6457" fill="var(--fill-0, #2F80ED)"/>
<path d="M5.8609 14.6462V1.71651C5.8609 1.03034 4.94687 0.795664 4.61665 1.39626L1.19627 7.61226C1.10032 7.78669 1.05 7.98255 1.05 8.18163C1.05 8.38071 1.10032 8.57656 1.19627 8.75099L4.61612 14.9659C4.94687 15.5665 5.86037 15.3319 5.86037 14.6457" stroke="var(--stroke-0, #2F80ED)" stroke-width="2.1" stroke-linecap="round" stroke-linejoin="round"/>
</g>
</g>
</svg>
