<svg width="16" height="16" viewBox="0 0 16 16" fill="none" xmlns="http://www.w3.org/2000/svg">
<path d="M13.3327 6.66634C13.3327 10.6663 7.99935 14.6663 7.99935 14.6663C7.99935 14.6663 2.66602 10.6663 2.66602 6.66634C2.66602 5.25185 3.22792 3.8953 4.22811 2.8951C5.22831 1.89491 6.58486 1.33301 7.99935 1.33301C9.41384 1.33301 10.7704 1.89491 11.7706 2.8951C12.7708 3.8953 13.3327 5.25185 13.3327 6.66634Z" stroke="#22C55E" stroke-width="1.6" stroke-linecap="round" stroke-linejoin="round"/>
<path d="M8 8.66699C9.10457 8.66699 10 7.77156 10 6.66699C10 5.56242 9.10457 4.66699 8 4.66699C6.89543 4.66699 6 5.56242 6 6.66699C6 7.77156 6.89543 8.66699 8 8.66699Z" stroke="#22C55E" stroke-width="1.6" stroke-linecap="round" stroke-linejoin="round"/>
</svg>
